<svg xmlns="http://www.w3.org/2000/svg" viewBox="0 0 100 100">
  <clipPath id="c">
    <rect x="0" y="0" width="100" height="100" rx="20"/>
  </clipPath>

  <rect x="0" y="0" width="100" height="100" rx="20" fill="#0e7490"/>

  <path d="M0 68 Q25 55 50 66 Q75 77 100 63 L100 100 L0 100 Z" fill="#0891b2" clip-path="url(#c)"/>
  <path d="M0 80 Q25 67 50 78 Q75 89 100 75 L100 100 L0 100 Z" fill="#06b6d4" clip-path="url(#c)"/>

  <rect x="22" y="38" width="56" height="44" rx="6" fill="none" stroke="white" stroke-width="3"/>
  <path d="M33 38 Q33 22 50 22 Q67 22 67 38" fill="none" stroke="white" stroke-width="3" stroke-linecap="round"/>
  <line x1="50" y1="52" x2="50" y2="68" stroke="white" stroke-width="2.5" stroke-linecap="round"/>
  <polyline points="42,61 50,70 58,61" fill="none" stroke="white" stroke-width="2.5" stroke-linecap="round" stroke-linejoin="round"/>
</svg>